REM DIRINDEX 1\2,1\3,1\4,1\5,1\6
REM DIRNAME folder01,folder02,folder03,folder04,folder05,folder06
TITLE ""
FILE "Disc5Track03.mp3" MP3
  TRACK 01 AUDIO
    TITLE "3:cjc030_08387"
    INDEX 01 00:00:00
  TRACK 02 AUDIO
    TITLE "0:"
    INDEX 01 00:00:68
  TRACK 03 AUDIO
    TITLE "4:cjc030_08388"
    INDEX 01 00:01:05
  TRACK 04 AUDIO
    TITLE "0:"
    INDEX 01 00:02:43
  TRACK 05 AUDIO
    TITLE "5:cjc030_08389"
    INDEX 01 00:02:53
  TRACK 06 AUDIO
    TITLE "0:"
    INDEX 01 00:03:53
  TRACK 07 AUDIO
    TITLE "6:cjc030_08390"
    INDEX 01 00:03:63
  TRACK 08 AUDIO
    TITLE "0:"
    INDEX 01 00:08:05
  TRACK 09 AUDIO
    TITLE "3:cjc030_08391"
    INDEX 01 00:08:54
  TRACK 10 AUDIO
    TITLE "0:"
    INDEX 01 00:09:55
  TRACK 11 AUDIO
    TITLE "4:cjc030_08392"
    INDEX 01 00:09:63
  TRACK 12 AUDIO
    TITLE "0:"
    INDEX 01 00:10:66
  TRACK 13 AUDIO
    TITLE "5:cjc030_08393"
    INDEX 01 00:10:74
  TRACK 14 AUDIO
    TITLE "0:"
    INDEX 01 00:12:03
  TRACK 15 AUDIO
    TITLE "3:cjc030_08394"
    INDEX 01 00:12:52
  TRACK 16 AUDIO
    TITLE "0:"
    INDEX 01 00:13:53
  TRACK 17 AUDIO
    TITLE "4:cjc030_08395"
    INDEX 01 00:13:63
  TRACK 18 AUDIO
    TITLE "0:"
    INDEX 01 00:16:02
  TRACK 19 AUDIO
    TITLE "5:cjc030_08396"
    INDEX 01 00:16:08
  TRACK 20 AUDIO
    TITLE "0:"
    INDEX 01 00:17:14
  TRACK 21 AUDIO
    TITLE "6:cjc030_08397"
    INDEX 01 00:17:25
  TRACK 22 AUDIO
    TITLE "0:"
    INDEX 01 00:21:02
  TRACK 23 AUDIO
    TITLE "3:cjc030_08398"
    INDEX 01 00:21:51
  TRACK 24 AUDIO
    TITLE "0:"
    INDEX 01 00:22:50
  TRACK 25 AUDIO
    TITLE "4:cjc030_08399"
    INDEX 01 00:22:56
  TRACK 26 AUDIO
    TITLE "0:"
    INDEX 01 00:24:69
  TRACK 27 AUDIO
    TITLE "5:cjc030_08400"
    INDEX 01 00:25:03
  TRACK 28 AUDIO
    TITLE "0:"
    INDEX 01 00:26:03
  TRACK 29 AUDIO
    TITLE "6:cjc030_08401"
    INDEX 01 00:26:15
  TRACK 30 AUDIO
    TITLE "0:"
    INDEX 01 00:27:47
  TRACK 31 AUDIO
    TITLE "3:cjc030_08402"
    INDEX 01 00:28:23
  TRACK 32 AUDIO
    TITLE "0:"
    INDEX 01 00:29:29
  TRACK 33 AUDIO
    TITLE "4:cjc030_08403"
    INDEX 01 00:29:36
  TRACK 34 AUDIO
    TITLE "0:"
    INDEX 01 00:33:58
  TRACK 35 AUDIO
    TITLE "5:cjc030_08404"
    INDEX 01 00:33:66
  TRACK 36 AUDIO
    TITLE "0:"
    INDEX 01 00:34:71
  TRACK 37 AUDIO
    TITLE "6:cjc030_08405"
    INDEX 01 00:35:08
  TRACK 38 AUDIO
    TITLE "0:"
    INDEX 01 00:37:50
  TRACK 39 AUDIO
    TITLE "3:cjc030_08406"
    INDEX 01 00:38:22
  TRACK 40 AUDIO
    TITLE "0:"
    INDEX 01 00:39:29
  TRACK 41 AUDIO
    TITLE "4:cjc030_08407"
    INDEX 01 00:39:39
  TRACK 42 AUDIO
    TITLE "0:"
    INDEX 01 00:41:38
  TRACK 43 AUDIO
    TITLE "5:cjc030_08408"
    INDEX 01 00:41:47
  TRACK 44 AUDIO
    TITLE "0:"
    INDEX 01 00:42:53
  TRACK 45 AUDIO
    TITLE "6:cjc030_08409"
    INDEX 01 00:42:66
  TRACK 46 AUDIO
    TITLE "0:"
    INDEX 01 00:46:23
  TRACK 47 AUDIO
    TITLE "3:cjc030_08410"
    INDEX 01 00:46:74
  TRACK 48 AUDIO
    TITLE "0:"
    INDEX 01 00:48:00
  TRACK 49 AUDIO
    TITLE "4:cjc030_08411"
    INDEX 01 00:48:08
  TRACK 50 AUDIO
    TITLE "0:"
    INDEX 01 00:50:27
  TRACK 51 AUDIO
    TITLE "5:cjc030_08412"
    INDEX 01 00:50:35
  TRACK 52 AUDIO
    TITLE "0:"
    INDEX 01 00:51:36
  TRACK 53 AUDIO
    TITLE "6:cjc030_08413"
    INDEX 01 00:51:48
  TRACK 54 AUDIO
    TITLE "0:"
    INDEX 01 00:53:27
  TRACK 55 AUDIO
    TITLE "3:cjc030_08414"
    INDEX 01 00:53:72
  TRACK 56 AUDIO
    TITLE "0:"
    INDEX 01 00:54:70
  TRACK 57 AUDIO
    TITLE "4:cjc030_08415"
    INDEX 01 00:55:03
  TRACK 58 AUDIO
    TITLE "0:"
    INDEX 01 00:57:17
  TRACK 59 AUDIO
    TITLE "5:cjc030_08416"
    INDEX 01 00:57:27
  TRACK 60 AUDIO
    TITLE "0:"
    INDEX 01 00:58:24
  TRACK 61 AUDIO
    TITLE "6:cjc030_08417"
    INDEX 01 00:58:38
  TRACK 62 AUDIO
    TITLE "0:"
    INDEX 01 01:02:50
  TRACK 63 AUDIO
    TITLE "3:cjc030_08418"
    INDEX 01 01:03:24
  TRACK 64 AUDIO
    TITLE "0:"
    INDEX 01 01:04:29
  TRACK 65 AUDIO
    TITLE "4:cjc030_08419"
    INDEX 01 01:04:39
  TRACK 66 AUDIO
    TITLE "0:"
    INDEX 01 01:05:50
  TRACK 67 AUDIO
    TITLE "5:cjc030_08420"
    INDEX 01 01:05:60
  TRACK 68 AUDIO
    TITLE "0:"
    INDEX 01 01:06:65
  TRACK 69 AUDIO
    TITLE "6:cjc030_08421"
    INDEX 01 01:07:02
  TRACK 70 AUDIO
    TITLE "0:"
    INDEX 01 01:09:14
  TRACK 71 AUDIO
    TITLE "3:cjc030_08422"
    INDEX 01 01:09:61
  TRACK 72 AUDIO
    TITLE "0:"
    INDEX 01 01:10:61
  TRACK 73 AUDIO
    TITLE "4:cjc030_08423"
    INDEX 01 01:10:69
  TRACK 74 AUDIO
    TITLE "0:"
    INDEX 01 01:13:04
  TRACK 75 AUDIO
    TITLE "5:cjc030_08424"
    INDEX 01 01:13:14
  TRACK 76 AUDIO
    TITLE "0:"
    INDEX 01 01:14:12
  TRACK 77 AUDIO
    TITLE "6:cjc030_08425"
    INDEX 01 01:14:25
  TRACK 78 AUDIO
    TITLE "0:"
    INDEX 01 01:17:41
  TRACK 79 AUDIO
    TITLE "3:cjc030_08426"
    INDEX 01 01:18:02
  TRACK 80 AUDIO
    TITLE "0:"
    INDEX 01 01:19:03
  TRACK 81 AUDIO
    TITLE "4:cjc030_08427"
    INDEX 01 01:19:11
  TRACK 82 AUDIO
    TITLE "0:"
    INDEX 01 01:20:48
  TRACK 83 AUDIO
    TITLE "5:cjc030_08428"
    INDEX 01 01:20:57
  TRACK 84 AUDIO
    TITLE "0:"
    INDEX 01 01:21:59
  TRACK 85 AUDIO
    TITLE "3:cjc030_08429"
    INDEX 01 01:22:33
  TRACK 86 AUDIO
    TITLE "0:"
    INDEX 01 01:23:38
  TRACK 87 AUDIO
    TITLE "4:cjc030_08430"
    INDEX 01 01:23:48
  TRACK 88 AUDIO
    TITLE "0:"
    INDEX 01 01:25:57
  TRACK 89 AUDIO
    TITLE "5:cjc030_08431"
    INDEX 01 01:25:66
  TRACK 90 AUDIO
    TITLE "0:"
    INDEX 01 01:26:68
  TRACK 91 AUDIO
    TITLE "6:cjc030_08432"
    INDEX 01 01:27:08
  TRACK 92 AUDIO
    TITLE "0:"
    INDEX 01 01:30:05
